<!-- Generator: Adobe Illustrator 19.1.0, SVG Export Plug-In  -->
<svg version="1.1"
	 xmlns="http://www.w3.org/2000/svg" xmlns:xlink="http://www.w3.org/1999/xlink" xmlns:a="http://ns.adobe.com/AdobeSVGViewerExtensions/3.0/"
	 x="0px" y="0px" width="292.7px" height="141.2px" viewBox="0 0 292.7 141.2" enable-background="new 0 0 292.7 141.2"
	 xml:space="preserve">
<defs>
</defs>
<g>
	<path fill="#FFFFFF" d="M59.5,100.1H0v-5.3L60.1,9.4h8.1v83h19.2v7.7H68.2v38.7h-8.7V100.1z M59.5,92.4V45c0-5.9,0.4-16.4,0.8-22.3
		h-0.8C56.3,28.2,52.6,33.1,49,39l-38,53.4H59.5z"/>
	<path fill="#FFFFFF" d="M104.2,90.4c0-32.6,20.2-51.2,43.5-51.2c23.5,0,43.7,18.6,43.7,51.2c0,32.2-20.2,50.8-43.7,50.8
		C124.5,141.2,104.2,122.6,104.2,90.4z M182.2,90.4c0-25.7-14.8-43.3-34.4-43.3c-19.6,0-34.2,17.6-34.2,43.3
		c0,25.5,14.6,42.9,34.2,42.9C167.4,133.3,182.2,115.9,182.2,90.4z"/>
	<g>
		<path fill="#FFFFFF" d="M92.2,0.5h15.1v2.8H95.5v8.2h10v2.8h-10v9.5h12.2v2.8H92.2V0.5z"/>
		<path fill="#FFFFFF" d="M113.3,0.5h8.2c5.4,0,9.2,1.9,9.2,7.4c0,4.1-2.3,6.6-5.9,7.4l6.7,11.4h-3.8l-6.3-11.1h-4.8v11.1h-3.3V0.5z
			 M121,12.9c4.1,0,6.4-1.7,6.4-5.1c0-3.4-2.3-4.7-6.4-4.7h-4.4v9.8H121z"/>
		<path fill="#FFFFFF" d="M136,0.5h8.2c5.4,0,9.2,1.9,9.2,7.4c0,4.1-2.3,6.6-5.9,7.4l6.7,11.4h-3.8l-6.3-11.1h-4.8v11.1H136V0.5z
			 M143.7,12.9c4.1,0,6.4-1.7,6.4-5.1c0-3.4-2.3-4.7-6.4-4.7h-4.4v9.8H143.7z"/>
		<path fill="#FFFFFF" d="M157.3,13.5c0-8.4,4.6-13.5,11.2-13.5c6.6,0,11.2,5.1,11.2,13.5c0,8.4-4.6,13.7-11.2,13.7
			C161.9,27.2,157.3,21.9,157.3,13.5z M176.2,13.5c0-6.5-3.1-10.6-7.8-10.6c-4.7,0-7.8,4-7.8,10.6c0,6.6,3.1,10.8,7.8,10.8
			C173.1,24.3,176.2,20,176.2,13.5z"/>
		<path fill="#FFFFFF" d="M185.4,0.5h8.2c5.4,0,9.2,1.9,9.2,7.4c0,4.1-2.3,6.6-5.9,7.4l6.7,11.4h-3.8l-6.3-11.1h-4.8v11.1h-3.3V0.5z
			 M193.1,12.9c4.1,0,6.4-1.7,6.4-5.1c0-3.4-2.3-4.7-6.4-4.7h-4.4v9.8H193.1z"/>
	</g>
	<path fill="#FFFFFF" d="M264.7,100.1h-59.5v-5.3l60.1-85.4h8.1v83h19.2v7.7h-19.2v38.7h-8.7V100.1z M264.7,92.4V45
		c0-5.9,0.4-16.4,0.8-22.3h-0.8c-3.2,5.5-6.9,10.3-10.5,16.2l-38,53.4H264.7z"/>
</g>
</svg>
