<!-- Generator: Adobe Illustrator 19.1.0, SVG Export Plug-In  -->
<svg version="1.1"
	 xmlns="http://www.w3.org/2000/svg" xmlns:xlink="http://www.w3.org/1999/xlink" xmlns:a="http://ns.adobe.com/AdobeSVGViewerExtensions/3.0/"
	 x="0px" y="0px" width="10px" height="40px" viewBox="0 0 10 40" enable-background="new 0 0 10 40" xml:space="preserve">
<defs>
</defs>
<g>
	<rect fill="#003A5D" width="10" height="40"/>
	<path opacity="5.000000e-02" fill="#F0F0EF" d="M0,39.3V40h0.7L5,35.5L9.3,40H10v-0.7l-4.3-4.5l4.3-4.5v-1.5
		c-4.4-4.9-4.4-12.6,0-17.5V9.7L5.7,5.2L10,0.7V0H9.3L5,4.5L0.7,0H0v0.7l0,0l4.3,4.5L0,9.7v1.5c4.4,4.9,4.4,12.6,0,17.5c0,0,0,0,0,0
		v1.5l0,0l4.3,4.5L0,39.3L0,39.3z M0.7,29.5c4.8-5.3,4.8-13.7,0-19.1L5,6l4.3,4.5c-4.8,5.3-4.8,13.7,0,19.1L5,34L0.7,29.5z"/>
</g>
</svg>
