<svg version="1.1" xmlns="http://www.w3.org/2000/svg" xmlns:xlink="http://www.w3.org/1999/xlink" xmlns:a="http://ns.adobe.com/AdobeSVGViewerExtensions/3.0/" x="0px" y="0px" width="48px" height="48px" viewBox="0 0 48 48" enable-background="new 0 0 48 48" xml:space="preserve">
                    <defs>
                        <symbol  id="icon_x5F_planning" viewBox="-23.9 -24 47.9 48">
                            <g>
                                <path fill="#F0F0EF" d="M-22.1,9l10.9-4.5c0.2-0.1,0.4-0.1,0.6-0.1c0.6,0,1.1,0.3,1.4,0.8l4.9,8.3l9,4.4L5,13.8 c0-0.1,0.1-0.2,0.2-0.3c0.1,0,0.2,0,0.3,0.1l7.5,9.8c0.1,0.1,0.1,0.2,0,0.3C13,23.9,12.9,24,12.8,24L0.4,24 c-0.1,0-0.2-0.1-0.3-0.2c0-0.1,0-0.2,0.1-0.3l3.1-2.7l-9.4-4.6c-0.3-0.1-0.5-0.4-0.7-0.6L-11.3,8l-9.6,4 c-0.8,0.3-1.8-0.1-2.1-0.9C-23.4,10.3-23,9.3-22.1,9z"/>
                                <path fill="#FF5900" d="M21.5-19.2h-43c-1.3,0-2.4-1.1-2.4-2.4c0-1.3,1.1-2.4,2.4-2.4h43c1.3,0,2.4,1.1,2.4,2.4 C23.9-20.2,22.9-19.2,21.5-19.2z"/>
                                <path fill="#F0F0EF" d="M12.4,16v-31c0-0.5,0.4-1,1-1h5.7c0.5,0,1,0.4,1,1v31c0,0.5-0.4,1-1,1h-5.7C12.9,17,12.4,16.6,12.4,16z" />
                                <path fill="#F0F0EF" d="M-2.9,8.4c-0.5,0-1-0.4-1-1V-15c0-0.5,0.4-1,1-1h5.7c0.5,0,1,0.4,1,1V7.4c0,0.5-0.4,1-1,1H-2.9z"/>
                                <path fill="#F0F0EF" d="M-16.3-3.8c-0.5,0-1-0.4-1-1V-15c0-0.5,0.4-1,1-1h5.7c0.5,0,1,0.4,1,1v10.2c0,0.5-0.4,1-1,1H-16.3z"/>
                            </g>
                        </symbol>
                    </defs>
                    <g>
                        <circle fill="#003A5D" cx="24" cy="24" r="24"/>
                        <use xlink:href="#icon_x5F_planning"  width="47.9" height="48" x="-23.9" y="-24" transform="matrix(0.5 0 0 -0.5 24 24)" overflow="visible"/>
                    </g>
                </svg>