<!-- Generator: Adobe Illustrator 19.1.0, SVG Export Plug-In  -->
<svg version="1.1"
	 xmlns="http://www.w3.org/2000/svg" xmlns:xlink="http://www.w3.org/1999/xlink" xmlns:a="http://ns.adobe.com/AdobeSVGViewerExtensions/3.0/"
	 x="0px" y="0px" width="48px" height="47.9px" viewBox="0 0 48 47.9" enable-background="new 0 0 48 47.9" xml:space="preserve">
<defs>
	<symbol  id="icon_x5F_invest" viewBox="-24 -24 48 47.9">
		<path fill="none" d="M-3.9,8.8c0.2-0.2,0.2-0.2,0-0.4c-0.1-0.1-0.2-0.1-0.4-0.2c-0.2-0.1-0.2-0.2,0-0.3c0.1,0,0.2-0.1,0.2-0.1
			C-4,7.7-3.9,7.6-3.8,7.6c0.2-0.1,0.3-0.1,0.5,0C-3.1,7.7-3,7.8-2.8,7.9C-2.6,8-2.4,8-2.2,7.9c0.5-0.2,1.1-0.2,1.6-0.2
			C1,7.8,2,8.7,1.6,9.6C1.4,9.9,1.2,10.2,1,10.5c-0.1,0.2-0.2,0.3-0.2,0.5c-0.1,0.3,0.4,0.6,1,0.4c0.2,0,0.3-0.1,0.4-0.2
			c0.1,0,0.1-0.1,0.2-0.1c0.4-0.2,0.7-0.5,0.9-0.8c0-0.1,0.1-0.1,0.1-0.1c0.1,0,0.2,0,0.4,0c0.3,0.1,0.6,0.2,0.9,0.3
			c0.2,0.1,0.2,0.1,0.2,0.3c-0.1,0.2-0.3,0.4-0.6,0.6c-0.3,0.2-0.3,0.2,0.1,0.5c0.5,0.3,0.5,0.3,0,0.6c-0.1,0-0.1,0.1-0.2,0.1
			c-0.2,0.1-0.3,0.1-0.6,0c-0.1-0.1-0.2-0.1-0.3-0.2c-0.3-0.2-0.3-0.2-0.7-0.1c-1,0.3-2,0.2-2.9-0.2c-0.8-0.4-0.9-0.9-0.6-1.4
			c0.1-0.3,0.4-0.6,0.6-1c0.1-0.1,0.2-0.2,0.2-0.4c0.1-0.4-0.5-0.6-1.1-0.5C-1.8,8.9-2,9-2.2,9.1c-0.1,0-0.1,0.1-0.2,0.1
			C-2.7,9.5-3,9.7-3.2,10.1c0,0.1-0.1,0.1-0.1,0.1c-0.1,0-0.2,0-0.4,0c-0.2-0.1-0.5-0.2-0.7-0.2c-0.3-0.1-0.4-0.2-0.3-0.4
			C-4.5,9.3-4.2,9-3.9,8.8z"/>
		<path fill="none" d="M-17.1,12c-0.2-0.1-0.4-0.2-0.6-0.3L2.7,0C2.8,0,2.9,0.1,3,0.2c1.5,0.9,4,0.9,5.5,0C8.8,0,9-0.1,9.1-0.3
			l8.5,4.9c-0.3,0.1-0.5,0.2-0.8,0.3c-1.5,0.9-1.5,2.3,0,3.2c0.2,0.1,0.5,0.2,0.8,0.3L-2.8,20.3c-0.1-0.1-0.3-0.2-0.5-0.3
			c-1.5-0.9-4-0.9-5.5,0c-0.2,0.1-0.3,0.2-0.4,0.3l-8.4-4.9c0.2-0.1,0.4-0.2,0.5-0.3C-15.6,14.3-15.6,12.9-17.1,12z M10.4,6
			c0.9-0.5,0.9-1.4,0-1.9c-0.9-0.5-2.4-0.5-3.3,0C6.2,4.6,6.2,5.5,7.1,6S9.5,6.5,10.4,6z M-6,13.5c3.3,1.9,8.7,1.9,12,0
			c3.3-1.9,3.3-5,0-6.9c-3.3-1.9-8.7-1.9-12,0C-9.2,8.5-9.3,11.6-6,13.5z M-10.4,16.1c0.9,0.5,2.4,0.5,3.3,0c0.9-0.5,0.9-1.4,0-1.9
			c-0.9-0.5-2.4-0.5-3.3,0C-11.3,14.7-11.3,15.6-10.4,16.1z"/>
		<path fill="#F0F0EF" d="M7.1,6C8,6.5,9.5,6.5,10.4,6c0.9-0.5,0.9-1.4,0-1.9c-0.9-0.5-2.4-0.5-3.3,0C6.2,4.6,6.2,5.5,7.1,6z
			 M-10.3,14.2c0.9-0.5,2.4-0.5,3.3,0c0.9,0.5,0.9,1.4,0,1.9c-0.9,0.5-2.4,0.5-3.3,0C-11.3,15.6-11.3,14.7-10.3,14.2z M-6,13.5
			c3.3,1.9,8.7,1.9,12,0c3.3-1.9,3.3-5,0-6.9c-3.3-1.9-8.7-1.9-12,0C-9.2,8.5-9.3,11.6-6,13.5z M-4.7,9.5C-4.5,9.3-4.2,9-3.9,8.8
			c0.2-0.2,0.2-0.2,0-0.4c-0.1-0.1-0.2-0.1-0.4-0.2c-0.2-0.1-0.2-0.2,0-0.3c0.1,0,0.2-0.1,0.2-0.1C-4,7.7-3.9,7.6-3.8,7.6
			c0.2-0.1,0.3-0.1,0.5,0C-3.1,7.7-3,7.8-2.8,7.9C-2.6,8-2.4,8-2.2,7.9c0.5-0.2,1.1-0.2,1.6-0.2C1,7.8,2,8.7,1.6,9.6
			C1.4,9.9,1.2,10.2,1,10.5c-0.1,0.2-0.2,0.3-0.2,0.5c-0.1,0.3,0.4,0.6,1,0.4c0.2,0,0.3-0.1,0.4-0.2c0.1,0,0.1-0.1,0.2-0.1
			c0.4-0.2,0.7-0.5,0.9-0.8c0-0.1,0.1-0.1,0.1-0.1c0.1,0,0.2,0,0.4,0c0.3,0.1,0.6,0.2,0.9,0.3c0.2,0.1,0.2,0.1,0.2,0.3
			c-0.1,0.2-0.3,0.4-0.6,0.6c-0.3,0.2-0.3,0.2,0.1,0.5c0.5,0.3,0.5,0.3,0,0.6c-0.1,0-0.1,0.1-0.2,0.1c-0.2,0.1-0.3,0.1-0.6,0
			c-0.1-0.1-0.2-0.1-0.3-0.2c-0.3-0.2-0.3-0.2-0.7-0.1c-1,0.3-2,0.2-2.9-0.2c-0.8-0.4-0.9-0.9-0.6-1.4c0.1-0.3,0.4-0.6,0.6-1
			c0.1-0.1,0.2-0.2,0.2-0.4c0.1-0.4-0.5-0.6-1.1-0.5C-1.8,8.9-2,9-2.2,9.1c-0.1,0-0.1,0.1-0.2,0.1C-2.7,9.5-3,9.7-3.2,10.1
			c0,0.1-0.1,0.1-0.1,0.1c-0.1,0-0.2,0-0.4,0c-0.2-0.1-0.5-0.2-0.7-0.2C-4.8,9.8-4.8,9.8-4.7,9.5z M-22.8,15.1l14,8.2
			c1.5,0.9,4,0.9,5.5,0L22.9,8.2c1.5-0.9,1.5-2.3,0-3.2l-14-8.1C7.4-4,4.9-4,3.4-3.1L-22.8,12C-24.3,12.9-24.3,14.3-22.8,15.1z
			 M-17.1,12c-0.2-0.1-0.4-0.2-0.6-0.3L2.7,0C2.8,0,2.9,0.1,3,0.2c1.5,0.9,4,0.9,5.5,0C8.8,0,9-0.1,9.1-0.3l8.5,4.9
			c-0.3,0.1-0.5,0.2-0.8,0.3c-1.5,0.9-1.5,2.3,0,3.2c0.2,0.1,0.5,0.2,0.8,0.3L-2.8,20.3c-0.1-0.1-0.3-0.2-0.5-0.3
			c-1.5-0.9-4-0.9-5.5,0c-0.2,0.1-0.3,0.2-0.4,0.3l-8.4-4.9c0.2-0.1,0.4-0.2,0.5-0.3C-15.6,14.3-15.6,12.9-17.1,12z"/>
		<path fill="#FF5900" d="M23.4-13.1c-0.7,0.4-1.7,0.4-2.3,0L6.3-21.7L-21.1-5.9c-0.6,0.4-1.7,0.4-2.3,0.1c-0.7-0.4-0.7-1-0.1-1.4
			L3.9-23.1l0.4-0.2l0.6-0.3c0.8-0.4,2-0.4,2.8,0l15.7,9.1C24-14.1,24-13.5,23.4-13.1z"/>
		<path fill="#F0F0EF" d="M-23.5-2.3L3.9-18.1l0.4-0.2l0.6-0.3c0.8-0.4,2-0.4,2.8,0l15.7,9.1c0.6,0.4,0.6,1,0,1.4
			c-0.6,0.4-1.7,0.4-2.3,0L6.2-16.8L-21.1-1c-0.6,0.4-1.7,0.4-2.3,0.1C-24.2-1.3-24.2-1.9-23.5-2.3z"/>
		<path fill="#F0F0EF" d="M23.4-3.3c-0.7,0.4-1.7,0.4-2.3,0L6.3-11.8L-21.1,3.9c-0.6,0.4-1.7,0.4-2.3,0.1c-0.7-0.4-0.7-1-0.1-1.4
			L3.9-13.2l0.4-0.2l0.6-0.3c0.8-0.4,2-0.4,2.8,0l15.7,9.1C24-4.2,24-3.6,23.4-3.3z"/>
		<path fill="#F0F0EF" d="M-23.5,7.6L3.9-8.3l0.4-0.2l0.6-0.3c0.8-0.4,2-0.4,2.8,0l15.7,9.1c0.6,0.4,0.6,1,0,1.4
			c-0.6,0.4-1.7,0.4-2.3,0L6.2-6.9L-21.1,8.9c-0.6,0.4-1.7,0.4-2.3,0.1C-24.2,8.6-24.2,8-23.5,7.6z"/>
	</symbol>
</defs>
<use xlink:href="#icon_x5F_invest"  width="48" height="47.9" x="-24" y="-24" transform="matrix(1 0 0 -1 24 23.9511)" overflow="visible"/>
</svg>
