<!-- Generator: Adobe Illustrator 19.1.0, SVG Export Plug-In  -->
<svg version="1.1"
	 xmlns="http://www.w3.org/2000/svg" xmlns:xlink="http://www.w3.org/1999/xlink" xmlns:a="http://ns.adobe.com/AdobeSVGViewerExtensions/3.0/"
	 x="0px" y="0px" width="15.4px" height="18px" viewBox="0 0 15.4 18" enable-background="new 0 0 15.4 18" xml:space="preserve">
<defs>
	<symbol  id="icon_x5F_private" viewBox="-6 -7 12 14">
		<path d="M4.7-7h-9.5C-5.4-7-6-6.4-6-5.7v6.5C-6,1.4-5.4,2-4.7,2h9.5C5.4,2,6,1.4,6,0.7v-6.5C6-6.4,5.4-7,4.7-7z"/>
		<g>
			<path d="M1,5c0.6,0,1-0.4,1-1v-8c0-0.6-0.4-1-1-1h-2c-0.6,0-1,0.4-1,1v8c0,0.6,0.4,1,1,1H1 M1,7h-2
				c-1.7,0-3-1.3-3-3v-8c0-1.7,1.3-3,3-3h2c1.7,0,3,1.3,3,3v8C4,5.7,2.7,7,1,7L1,7z"/>
		</g>
	</symbol>
</defs>
<use xlink:href="#icon_x5F_private"  width="12" height="14" x="-6" y="-7" transform="matrix(1.2857 0 0 -1.2857 7.7143 9)" overflow="visible"/>
</svg>
