<!-- Generator: Adobe Illustrator 19.1.0, SVG Export Plug-In  -->
<svg version="1.1"
	 xmlns="http://www.w3.org/2000/svg" xmlns:xlink="http://www.w3.org/1999/xlink" xmlns:a="http://ns.adobe.com/AdobeSVGViewerExtensions/3.0/"
	 x="0px" y="0px" width="28px" height="28px" viewBox="0 0 28 28" enable-background="new 0 0 28 28" xml:space="preserve">
<defs>
	<symbol  id="icon_x5F_location" viewBox="-14 -14 28 28">
		<path id="XMLID_12613_" fill="#F0F0EF" d="M7.3,6.7C7.3,10.7,4,14,0,14s-7.3-3.3-7.3-7.3c0-5.3,6.2-13.1,7.2-14.2
			c0.1-0.1,0.2-0.1,0.3,0C1.1-6.4,7.3,1.3,7.3,6.7L7.3,6.7z M-4.3,7.1c0,2.4,1.9,4.3,4.3,4.3c2.4,0,4.3-1.9,4.3-4.3
			c0-2.4-1.9-4.4-4.3-4.4C-2.4,2.8-4.3,4.7-4.3,7.1L-4.3,7.1z M-3.6,7.1"/>
		<path id="XMLID_12610_" fill="#FF5900" d="M4.1-5.2C3.5-6.1,3-6.9,2.5-7.5C6.8-7.7,9.7-8.6,11-9.3c0.1-0.1,0.1-0.3,0-0.4
			c-1.6-0.9-5.4-1.9-11-1.9c-5.7,0-9.5,1.1-11,1.9c-0.1,0.1-0.1,0.3,0,0.4c1.3,0.7,4.2,1.6,8.5,1.9c-0.5,0.6-1,1.4-1.6,2.2
			C-9.9-5.8-14-7.5-14-9.5C-14-12-7.7-14,0-14c7.7,0,14,2,14,4.5C14-7.5,9.9-5.8,4.1-5.2L4.1-5.2z M4.1-5.2"/>
	</symbol>
</defs>
<use xlink:href="#icon_x5F_location"  width="28" height="28" x="-14" y="-14" transform="matrix(1 0 0 -1 14 14)" overflow="visible"/>
</svg>
