<!-- Generator: Adobe Illustrator 19.1.0, SVG Export Plug-In  -->
<svg version="1.1"
	 xmlns="http://www.w3.org/2000/svg" xmlns:xlink="http://www.w3.org/1999/xlink" xmlns:a="http://ns.adobe.com/AdobeSVGViewerExtensions/3.0/"
	 x="0px" y="0px" width="18px" height="18px" viewBox="0 0 18 18" enable-background="new 0 0 18 18" xml:space="preserve">
<defs>
	<symbol  id="icon_x5F_public" viewBox="-7 -7 14 14">
		<path id="XMLID_1229_" d="M0,7c-3.9,0-7-3.1-7-7c0-3.9,3.1-7,7-7c3.9,0,7,3.1,7,7C7,3.9,3.9,7,0,7L0,7z M4-3.9v0.3
			c0,1-1.1,1.3-1.7,1.6c-0.2,0.1-0.6,0.3-1,0.5C1.2-1.5,1-1.3,1-1.1l0,0.5C1.3-0.4,1.6,0,1.6,0.5h0.1c0.1,0,0.2,0.1,0.2,0.2l0.1,0.7
			c0,0.1-0.1,0.2-0.2,0.2c0,0,0,0,0,0c0,0.1,0,0.2,0,0.2c0,0.1,0,0.1,0,0.2c0,0.3,0,0.6-0.1,0.8C1.6,3.1,1.5,3.3,1.3,3.5
			C0.8,4,0.1,4.2-0.4,3.8c-0.4,0.1-0.8-0.1-1.1-0.5c-0.2-0.2-0.3-0.4-0.3-0.7c0-0.1-0.1-0.3-0.1-0.5c0-0.2,0-0.4,0.1-0.5
			c-0.1,0-0.2-0.1-0.2-0.2L-2,0.7c0-0.1,0.1-0.2,0.2-0.2h0.1C-1.6,0-1.3-0.4-1-0.7l0-0.4c0-0.2-0.1-0.3-0.3-0.4
			c-0.4-0.2-0.8-0.4-1-0.5C-3-2.3-4.1-2.6-4.1-3.6v-0.2C-5-2.8-5.6-1.5-5.6,0c0,3.1,2.5,5.6,5.6,5.6S5.6,3.1,5.6,0
			C5.6-1.5,5-2.9,4-3.9L4-3.9z M4-3.9"/>
	</symbol>
</defs>
<use xlink:href="#icon_x5F_public"  width="14" height="14" x="-7" y="-7" transform="matrix(1.2857 0 0 -1.2857 9.0002 9)" overflow="visible"/>
</svg>
