<!-- Generator: Adobe Illustrator 19.1.0, SVG Export Plug-In  -->
<svg version="1.1"
	 xmlns="http://www.w3.org/2000/svg" xmlns:xlink="http://www.w3.org/1999/xlink" xmlns:a="http://ns.adobe.com/AdobeSVGViewerExtensions/3.0/"
	 x="0px" y="0px" width="7.2px" height="12px" viewBox="0 0 7.2 12" enable-background="new 0 0 7.2 12" xml:space="preserve">
<defs>
</defs>
<g>
	<g>
		<g>
			<path fill="#FF5900" d="M7.1,10.7L6.3,8.6C6.2,8.2,5.7,8,5.3,8.2l-1,0.4c0,0-0.1-0.1-0.1-0.1C3.8,8,3.3,7.4,3,6.4
				C2.6,5.5,2.6,4.7,2.5,4.2c0-0.1,0-0.1,0-0.2l0.7-0.3l0.3-0.1C4,3.4,4.2,3,4,2.6L3.2,0.5C3.1,0.1,2.6-0.1,2.2,0.1L1.6,0.3l0,0
				C1.4,0.4,1.2,0.6,1,0.7C0.8,0.9,0.7,1.1,0.6,1.3c-0.9,1.5-0.8,3.2,0.3,6c1.5,3.9,3.7,4.6,3.8,4.6C4.9,11.9,5.1,12,5.3,12
				c0.2,0,0.5,0,0.7-0.1l0,0l0.6-0.2C7.1,11.6,7.3,11.1,7.1,10.7z"/>
		</g>
	</g>
</g>
</svg>
