<!-- Generator: Adobe Illustrator 19.1.0, SVG Export Plug-In  -->
<svg version="1.1"
	 xmlns="http://www.w3.org/2000/svg" xmlns:xlink="http://www.w3.org/1999/xlink" xmlns:a="http://ns.adobe.com/AdobeSVGViewerExtensions/3.0/"
	 x="0px" y="0px" width="12px" height="9.1px" viewBox="0 0 12 9.1" enable-background="new 0 0 12 9.1" xml:space="preserve">
<defs>
</defs>
<path fill="#FF5900" d="M10.6,0H1.4C0.6,0,0,0.6,0,1.4v6.4c0,0.8,0.6,1.4,1.4,1.4h9.2c0.8,0,1.4-0.6,1.4-1.4V1.4
	C12,0.6,11.4,0,10.6,0z M10.6,7.9H1.4c-0.1,0-0.2-0.1-0.2-0.2V2.2l4.1,3.5c0.1,0.1,0.2,0.1,0.3,0.1l0.7,0c0.1,0,0.2,0,0.3-0.1
	l4.1-3.5v5.5C10.8,7.8,10.7,7.9,10.6,7.9z M6,4.6L2,1.2H10L6,4.6z"/>
</svg>
