<svg style="display: none;"><defs> <symbol id="icon-avatar-icon_x5F_public" viewBox="-7 -7 14 14"> <path id="icon-avatar-XMLID_1229_" d="M0,7c-3.9,0-7-3.1-7-7c0-3.9,3.1-7,7-7c3.9,0,7,3.1,7,7C7,3.9,3.9,7,0,7L0,7z M4-3.9v0.3
			c0,1-1.1,1.3-1.7,1.6c-0.2,0.1-0.6,0.3-1,0.5C1.2-1.5,1-1.3,1-1.1l0,0.5C1.3-0.4,1.6,0,1.6,0.5h0.1c0.1,0,0.2,0.1,0.2,0.2l0.1,0.7
			c0,0.1-0.1,0.2-0.2,0.2c0,0,0,0,0,0c0,0.1,0,0.2,0,0.2c0,0.1,0,0.1,0,0.2c0,0.3,0,0.6-0.1,0.8C1.6,3.1,1.5,3.3,1.3,3.5
			C0.8,4,0.1,4.2-0.4,3.8c-0.4,0.1-0.8-0.1-1.1-0.5c-0.2-0.2-0.3-0.4-0.3-0.7c0-0.1-0.1-0.3-0.1-0.5c0-0.2,0-0.4,0.1-0.5
			c-0.1,0-0.2-0.1-0.2-0.2L-2,0.7c0-0.1,0.1-0.2,0.2-0.2h0.1C-1.6,0-1.3-0.4-1-0.7l0-0.4c0-0.2-0.1-0.3-0.3-0.4
			c-0.4-0.2-0.8-0.4-1-0.5C-3-2.3-4.1-2.6-4.1-3.6v-0.2C-5-2.8-5.6-1.5-5.6,0c0,3.1,2.5,5.6,5.6,5.6S5.6,3.1,5.6,0
			C5.6-1.5,5-2.9,4-3.9L4-3.9z M4-3.9"/> </symbol>  <symbol id="icon-close-icon_x5F_close" viewBox="-10 -9.2 20 18.4"> <polygon points="-7.8,-9.2 9.2,7.8 7.8,9.2 -9.2,-7.8 		"/> <polygon points="-9.2,7.8 7.8,-9.2 9.2,-7.8 -7.8,9.2 		"/> <polygon display="none" fill="none" points="-10,9 10,9 10,-9 -10,-9 		"/> </symbol>  <symbol id="icon-down-icon_x5F_down" viewBox="-5.4 -3.4 10.8 6.8"> <g> <polygon points="0,-3.4 -5.4,2.7 -4.6,3.4 0,-1.9 4.6,3.4 5.4,2.7 			"/> </g> </symbol>  <symbol id="icon-estadistica-icon_x5F_planning" viewBox="-23.9 -24 47.9 48"> <g> <path fill="#F0F0EF" d="M-22.1,9l10.9-4.5c0.2-0.1,0.4-0.1,0.6-0.1c0.6,0,1.1,0.3,1.4,0.8l4.9,8.3l9,4.4L5,13.8
				c0-0.1,0.1-0.2,0.2-0.3c0.1,0,0.2,0,0.3,0.1l7.5,9.8c0.1,0.1,0.1,0.2,0,0.3C13,23.9,12.9,24,12.8,24L0.4,24
				c-0.1,0-0.2-0.1-0.3-0.2c0-0.1,0-0.2,0.1-0.3l3.1-2.7l-9.4-4.6c-0.3-0.1-0.5-0.4-0.7-0.6L-11.3,8l-9.6,4
				c-0.8,0.3-1.8-0.1-2.1-0.9C-23.4,10.3-23,9.3-22.1,9z"/> <path fill="#FF5900" d="M21.5-19.2h-43c-1.3,0-2.4-1.1-2.4-2.4c0-1.3,1.1-2.4,2.4-2.4h43c1.3,0,2.4,1.1,2.4,2.4
				C23.9-20.2,22.9-19.2,21.5-19.2z"/> <path fill="#F0F0EF" d="M12.4,16v-31c0-0.5,0.4-1,1-1h5.7c0.5,0,1,0.4,1,1v31c0,0.5-0.4,1-1,1h-5.7C12.9,17,12.4,16.6,12.4,16z"/> <path fill="#F0F0EF" d="M-2.9,8.4c-0.5,0-1-0.4-1-1V-15c0-0.5,0.4-1,1-1h5.7c0.5,0,1,0.4,1,1V7.4c0,0.5-0.4,1-1,1H-2.9z"/> <path fill="#F0F0EF" d="M-16.3-3.8c-0.5,0-1-0.4-1-1V-15c0-0.5,0.4-1,1-1h5.7c0.5,0,1,0.4,1,1v10.2c0,0.5-0.4,1-1,1H-16.3z"/> </g> </symbol>  <symbol id="icon-lupa-icon_x5F_search" viewBox="-8 -8 16 16"> <path id="icon-lupa-XMLID_227_" d="M6.8-8C6.4-8,6.1-7.9,5.9-7.6L2.6-4.3C1.5-5.1,0.1-5.5-1.2-5.5C-5-5.5-8-2.5-8,1.2
			S-5,8-1.2,8s6.8-3,6.8-6.8c0-1.4-0.4-2.7-1.2-3.8l3.3-3.3C7.9-6.1,8-6.4,8-6.8C8-7.4,7.4-8,6.8-8z M-1.2,6.7c-3,0-5.5-2.5-5.5-5.5
			s2.5-5.5,5.5-5.5s5.5,2.5,5.5,5.5S1.8,6.7-1.2,6.7z"/> </symbol>   <symbol id="icon-money-icon_x5F_invest" viewBox="-24 -24 48 47.9"> <path fill="none" d="M-3.9,8.8c0.2-0.2,0.2-0.2,0-0.4c-0.1-0.1-0.2-0.1-0.4-0.2c-0.2-0.1-0.2-0.2,0-0.3c0.1,0,0.2-0.1,0.2-0.1
			C-4,7.7-3.9,7.6-3.8,7.6c0.2-0.1,0.3-0.1,0.5,0C-3.1,7.7-3,7.8-2.8,7.9C-2.6,8-2.4,8-2.2,7.9c0.5-0.2,1.1-0.2,1.6-0.2
			C1,7.8,2,8.7,1.6,9.6C1.4,9.9,1.2,10.2,1,10.5c-0.1,0.2-0.2,0.3-0.2,0.5c-0.1,0.3,0.4,0.6,1,0.4c0.2,0,0.3-0.1,0.4-0.2
			c0.1,0,0.1-0.1,0.2-0.1c0.4-0.2,0.7-0.5,0.9-0.8c0-0.1,0.1-0.1,0.1-0.1c0.1,0,0.2,0,0.4,0c0.3,0.1,0.6,0.2,0.9,0.3
			c0.2,0.1,0.2,0.1,0.2,0.3c-0.1,0.2-0.3,0.4-0.6,0.6c-0.3,0.2-0.3,0.2,0.1,0.5c0.5,0.3,0.5,0.3,0,0.6c-0.1,0-0.1,0.1-0.2,0.1
			c-0.2,0.1-0.3,0.1-0.6,0c-0.1-0.1-0.2-0.1-0.3-0.2c-0.3-0.2-0.3-0.2-0.7-0.1c-1,0.3-2,0.2-2.9-0.2c-0.8-0.4-0.9-0.9-0.6-1.4
			c0.1-0.3,0.4-0.6,0.6-1c0.1-0.1,0.2-0.2,0.2-0.4c0.1-0.4-0.5-0.6-1.1-0.5C-1.8,8.9-2,9-2.2,9.1c-0.1,0-0.1,0.1-0.2,0.1
			C-2.7,9.5-3,9.7-3.2,10.1c0,0.1-0.1,0.1-0.1,0.1c-0.1,0-0.2,0-0.4,0c-0.2-0.1-0.5-0.2-0.7-0.2c-0.3-0.1-0.4-0.2-0.3-0.4
			C-4.5,9.3-4.2,9-3.9,8.8z"/> <path fill="none" d="M-17.1,12c-0.2-0.1-0.4-0.2-0.6-0.3L2.7,0C2.8,0,2.9,0.1,3,0.2c1.5,0.9,4,0.9,5.5,0C8.8,0,9-0.1,9.1-0.3
			l8.5,4.9c-0.3,0.1-0.5,0.2-0.8,0.3c-1.5,0.9-1.5,2.3,0,3.2c0.2,0.1,0.5,0.2,0.8,0.3L-2.8,20.3c-0.1-0.1-0.3-0.2-0.5-0.3
			c-1.5-0.9-4-0.9-5.5,0c-0.2,0.1-0.3,0.2-0.4,0.3l-8.4-4.9c0.2-0.1,0.4-0.2,0.5-0.3C-15.6,14.3-15.6,12.9-17.1,12z M10.4,6
			c0.9-0.5,0.9-1.4,0-1.9c-0.9-0.5-2.4-0.5-3.3,0C6.2,4.6,6.2,5.5,7.1,6S9.5,6.5,10.4,6z M-6,13.5c3.3,1.9,8.7,1.9,12,0
			c3.3-1.9,3.3-5,0-6.9c-3.3-1.9-8.7-1.9-12,0C-9.2,8.5-9.3,11.6-6,13.5z M-10.4,16.1c0.9,0.5,2.4,0.5,3.3,0c0.9-0.5,0.9-1.4,0-1.9
			c-0.9-0.5-2.4-0.5-3.3,0C-11.3,14.7-11.3,15.6-10.4,16.1z"/> <path fill="#F0F0EF" d="M7.1,6C8,6.5,9.5,6.5,10.4,6c0.9-0.5,0.9-1.4,0-1.9c-0.9-0.5-2.4-0.5-3.3,0C6.2,4.6,6.2,5.5,7.1,6z
			 M-10.3,14.2c0.9-0.5,2.4-0.5,3.3,0c0.9,0.5,0.9,1.4,0,1.9c-0.9,0.5-2.4,0.5-3.3,0C-11.3,15.6-11.3,14.7-10.3,14.2z M-6,13.5
			c3.3,1.9,8.7,1.9,12,0c3.3-1.9,3.3-5,0-6.9c-3.3-1.9-8.7-1.9-12,0C-9.2,8.5-9.3,11.6-6,13.5z M-4.7,9.5C-4.5,9.3-4.2,9-3.9,8.8
			c0.2-0.2,0.2-0.2,0-0.4c-0.1-0.1-0.2-0.1-0.4-0.2c-0.2-0.1-0.2-0.2,0-0.3c0.1,0,0.2-0.1,0.2-0.1C-4,7.7-3.9,7.6-3.8,7.6
			c0.2-0.1,0.3-0.1,0.5,0C-3.1,7.7-3,7.8-2.8,7.9C-2.6,8-2.4,8-2.2,7.9c0.5-0.2,1.1-0.2,1.6-0.2C1,7.8,2,8.7,1.6,9.6
			C1.4,9.9,1.2,10.2,1,10.5c-0.1,0.2-0.2,0.3-0.2,0.5c-0.1,0.3,0.4,0.6,1,0.4c0.2,0,0.3-0.1,0.4-0.2c0.1,0,0.1-0.1,0.2-0.1
			c0.4-0.2,0.7-0.5,0.9-0.8c0-0.1,0.1-0.1,0.1-0.1c0.1,0,0.2,0,0.4,0c0.3,0.1,0.6,0.2,0.9,0.3c0.2,0.1,0.2,0.1,0.2,0.3
			c-0.1,0.2-0.3,0.4-0.6,0.6c-0.3,0.2-0.3,0.2,0.1,0.5c0.5,0.3,0.5,0.3,0,0.6c-0.1,0-0.1,0.1-0.2,0.1c-0.2,0.1-0.3,0.1-0.6,0
			c-0.1-0.1-0.2-0.1-0.3-0.2c-0.3-0.2-0.3-0.2-0.7-0.1c-1,0.3-2,0.2-2.9-0.2c-0.8-0.4-0.9-0.9-0.6-1.4c0.1-0.3,0.4-0.6,0.6-1
			c0.1-0.1,0.2-0.2,0.2-0.4c0.1-0.4-0.5-0.6-1.1-0.5C-1.8,8.9-2,9-2.2,9.1c-0.1,0-0.1,0.1-0.2,0.1C-2.7,9.5-3,9.7-3.2,10.1
			c0,0.1-0.1,0.1-0.1,0.1c-0.1,0-0.2,0-0.4,0c-0.2-0.1-0.5-0.2-0.7-0.2C-4.8,9.8-4.8,9.8-4.7,9.5z M-22.8,15.1l14,8.2
			c1.5,0.9,4,0.9,5.5,0L22.9,8.2c1.5-0.9,1.5-2.3,0-3.2l-14-8.1C7.4-4,4.9-4,3.4-3.1L-22.8,12C-24.3,12.9-24.3,14.3-22.8,15.1z
			 M-17.1,12c-0.2-0.1-0.4-0.2-0.6-0.3L2.7,0C2.8,0,2.9,0.1,3,0.2c1.5,0.9,4,0.9,5.5,0C8.8,0,9-0.1,9.1-0.3l8.5,4.9
			c-0.3,0.1-0.5,0.2-0.8,0.3c-1.5,0.9-1.5,2.3,0,3.2c0.2,0.1,0.5,0.2,0.8,0.3L-2.8,20.3c-0.1-0.1-0.3-0.2-0.5-0.3
			c-1.5-0.9-4-0.9-5.5,0c-0.2,0.1-0.3,0.2-0.4,0.3l-8.4-4.9c0.2-0.1,0.4-0.2,0.5-0.3C-15.6,14.3-15.6,12.9-17.1,12z"/> <path fill="#FF5900" d="M23.4-13.1c-0.7,0.4-1.7,0.4-2.3,0L6.3-21.7L-21.1-5.9c-0.6,0.4-1.7,0.4-2.3,0.1c-0.7-0.4-0.7-1-0.1-1.4
			L3.9-23.1l0.4-0.2l0.6-0.3c0.8-0.4,2-0.4,2.8,0l15.7,9.1C24-14.1,24-13.5,23.4-13.1z"/> <path fill="#F0F0EF" d="M-23.5-2.3L3.9-18.1l0.4-0.2l0.6-0.3c0.8-0.4,2-0.4,2.8,0l15.7,9.1c0.6,0.4,0.6,1,0,1.4
			c-0.6,0.4-1.7,0.4-2.3,0L6.2-16.8L-21.1-1c-0.6,0.4-1.7,0.4-2.3,0.1C-24.2-1.3-24.2-1.9-23.5-2.3z"/> <path fill="#F0F0EF" d="M23.4-3.3c-0.7,0.4-1.7,0.4-2.3,0L6.3-11.8L-21.1,3.9c-0.6,0.4-1.7,0.4-2.3,0.1c-0.7-0.4-0.7-1-0.1-1.4
			L3.9-13.2l0.4-0.2l0.6-0.3c0.8-0.4,2-0.4,2.8,0l15.7,9.1C24-4.2,24-3.6,23.4-3.3z"/> <path fill="#F0F0EF" d="M-23.5,7.6L3.9-8.3l0.4-0.2l0.6-0.3c0.8-0.4,2-0.4,2.8,0l15.7,9.1c0.6,0.4,0.6,1,0,1.4
			c-0.6,0.4-1.7,0.4-2.3,0L6.2-6.9L-21.1,8.9c-0.6,0.4-1.7,0.4-2.3,0.1C-24.2,8.6-24.2,8-23.5,7.6z"/> </symbol>  <symbol id="icon-next-icon_x5F_right" viewBox="-3.4 -5.4 6.8 10.8"> <g> <polygon points="-2.7,-5.4 -3.4,-4.6 1.9,0 -3.4,4.6 -2.7,5.4 3.4,0 			"/> </g> </symbol>  <symbol id="icon-palace-icon_x5F_bank" viewBox="-23.5 -23.5 47 47"> <g> <path fill="#FF5900" d="M21.3-19.2h-42.7c-1.2,0-2.1-1-2.1-2.1c0-1.2,1-2.1,2.1-2.1h42.7c1.2,0,2.1,1,2.1,2.1
				C23.5-20.2,22.5-19.2,21.3-19.2z"/> <path fill="#F0F0EF" d="M-18.7-11.7c-1.2,0-2.1-1-2.1-2.1c0-1.2,1-2.1,2.1-2.1h37.4c1.2,0,2.1,1,2.1,2.1c0,1.2-1,2.1-2.1,2.1
				h-0.5V4.6h0.5c0.6,0,1.1,0.5,1.1,1.1s-0.5,1.1-1.1,1.1h-37.4c-0.6,0-1.1-0.5-1.1-1.1s0.5-1.1,1.1-1.1h0.5v-16.2L-18.7-11.7
				L-18.7-11.7z M13.9,4.6v-16.2H7.5V4.6H13.9z M3.2,4.6v-16.2h-6.4V4.6H3.2z M-13.9,4.6h6.4v-16.2h-6.4V4.6z"/> <path fill="#F0F0EF" d="M-21.4,9.6h42.7c0,0,0,0,0,0c1.2,0,2.1,1,2.1,2.1c0,0.9-0.6,1.7-1.4,2L0.9,23.3c-0.6,0.2-1.2,0.2-1.8,0
				l-21.4-9.6c-0.9-0.4-1.4-1.4-1.2-2.4C-23.2,10.3-22.4,9.6-21.4,9.6z"/> </g> </symbol>   <symbol id="icon-place-icon_x5F_location" viewBox="-14 -14 28 28"> <path id="icon-place-XMLID_12613_" fill="#F0F0EF" d="M7.3,6.7C7.3,10.7,4,14,0,14s-7.3-3.3-7.3-7.3c0-5.3,6.2-13.1,7.2-14.2
			c0.1-0.1,0.2-0.1,0.3,0C1.1-6.4,7.3,1.3,7.3,6.7L7.3,6.7z M-4.3,7.1c0,2.4,1.9,4.3,4.3,4.3c2.4,0,4.3-1.9,4.3-4.3
			c0-2.4-1.9-4.4-4.3-4.4C-2.4,2.8-4.3,4.7-4.3,7.1L-4.3,7.1z M-3.6,7.1"/> <path id="icon-place-XMLID_12610_" fill="#FF5900" d="M4.1-5.2C3.5-6.1,3-6.9,2.5-7.5C6.8-7.7,9.7-8.6,11-9.3c0.1-0.1,0.1-0.3,0-0.4
			c-1.6-0.9-5.4-1.9-11-1.9c-5.7,0-9.5,1.1-11,1.9c-0.1,0.1-0.1,0.3,0,0.4c1.3,0.7,4.2,1.6,8.5,1.9c-0.5,0.6-1,1.4-1.6,2.2
			C-9.9-5.8-14-7.5-14-9.5C-14-12-7.7-14,0-14c7.7,0,14,2,14,4.5C14-7.5,9.9-5.8,4.1-5.2L4.1-5.2z M4.1-5.2"/> </symbol>  <symbol id="icon-prev-icon_x5F_left" viewBox="-3.4 -5.4 6.8 10.8"> <g> <polygon points="2.7,-5.4 -3.4,0 2.7,5.4 3.4,4.6 -1.9,0 3.4,-4.6 			"/> </g> </symbol>  <symbol id="icon-private-icon_x5F_private" viewBox="-6 -7 12 14"> <path d="M4.7-7h-9.5C-5.4-7-6-6.4-6-5.7v6.5C-6,1.4-5.4,2-4.7,2h9.5C5.4,2,6,1.4,6,0.7v-6.5C6-6.4,5.4-7,4.7-7z"/> <g> <path d="M1,5c0.6,0,1-0.4,1-1v-8c0-0.6-0.4-1-1-1h-2c-0.6,0-1,0.4-1,1v8c0,0.6,0.4,1,1,1H1 M1,7h-2
				c-1.7,0-3-1.3-3-3v-8c0-1.7,1.3-3,3-3h2c1.7,0,3,1.3,3,3v8C4,5.7,2.7,7,1,7L1,7z"/> </g> </symbol>  <symbol id="icon-rise-icon_x5F_graph" viewBox="-14.4 -14.5 28 28"> <g> <path fill="#FF5900" d="M13.6-13.9c0-0.3-0.2-0.6-0.6-0.6h-26.9c-0.3,0-0.6,0.2-0.6,0.6v1.9c0,0.3,0.2,0.6,0.6,0.6H13
				c0.3,0,0.6-0.2,0.6-0.6V-13.9z"/> </g> <path fill="#F0F0EF" d="M-6.4,2.1c0,0.3-0.2,0.5-0.5,0.5H-9c-0.3,0-0.5-0.2-0.5-0.5V-8c0-0.3,0.2-0.5,0.5-0.5h2.1
			c0.3,0,0.5,0.2,0.5,0.5V2.1z"/> <path fill="#F0F0EF" d="M1.6,7.1c0,0.3-0.2,0.5-0.5,0.5H-1c-0.3,0-0.5-0.2-0.5-0.5V-8c0-0.3,0.2-0.5,0.5-0.5h2.1
			c0.3,0,0.5,0.2,0.5,0.5V7.1z"/> <path fill="#F0F0EF" d="M9.6,13.1c0,0.3-0.2,0.5-0.5,0.5H7c-0.3,0-0.5-0.2-0.5-0.5V-8c0-0.3,0.2-0.5,0.5-0.5h2.1
			c0.3,0,0.5,0.2,0.5,0.5V13.1z"/> </symbol>  <symbol id="icon-up-icon_x5F_up" viewBox="-5.4 -3.4 10.8 6.8"> <g> <polygon points="0,3.4 5.4,-2.7 4.6,-3.4 0,1.9 -4.6,-3.4 -5.4,-2.7 			"/> </g> </symbol> </defs><symbol viewBox="0 0 18 18" id="shape-icon-avatar"><title>icon-avatar</title>  <use xlink:href="#icon-avatar-icon_x5F_public" width="14" height="14" x="-7" y="-7" transform="matrix(1.2857 0 0 -1.2857 9.0002 9)" overflow="visible"/> </symbol><symbol viewBox="0 0 20 18.7" id="shape-icon-close"><title>icon-close</title>  <use xlink:href="#icon-close-icon_x5F_close" width="20" height="18.4" x="-10" y="-9.2" transform="matrix(1 0 0 -1 10 9.5383)" overflow="visible"/> </symbol><symbol viewBox="0 0 24 15.2" id="shape-icon-down"><title>icon-down</title>  <use xlink:href="#icon-down-icon_x5F_down" width="10.8" height="6.8" x="-5.4" y="-3.4" transform="matrix(2.2322 0 0 -2.2322 12 7.5918)" overflow="visible"/> </symbol><symbol viewBox="0 0 47.9 48" id="shape-icon-estadistica"><title>icon-estadistica</title>  <use xlink:href="#icon-estadistica-icon_x5F_planning" width="47.9" height="48" x="-23.9" y="-24" transform="matrix(1 0 0 -1 23.9417 24)" overflow="visible"/> </symbol><symbol viewBox="0 0 16 16" id="shape-icon-lupa"><title>icon-lupa</title>  <use xlink:href="#icon-lupa-icon_x5F_search" width="16" height="16" id="icon-lupa-XMLID_1_" x="-8" y="-8" transform="matrix(1 0 0 -1 8 8)" overflow="visible"/> </symbol><symbol viewBox="0 0 12 9.1" id="shape-icon-mail"><title>icon-mail</title>  <path fill="#FF5900" d="M10.6,0H1.4C0.6,0,0,0.6,0,1.4v6.4c0,0.8,0.6,1.4,1.4,1.4h9.2c0.8,0,1.4-0.6,1.4-1.4V1.4
	C12,0.6,11.4,0,10.6,0z M10.6,7.9H1.4c-0.1,0-0.2-0.1-0.2-0.2V2.2l4.1,3.5c0.1,0.1,0.2,0.1,0.3,0.1l0.7,0c0.1,0,0.2,0,0.3-0.1
	l4.1-3.5v5.5C10.8,7.8,10.7,7.9,10.6,7.9z M6,4.6L2,1.2H10L6,4.6z"/> </symbol><symbol viewBox="0 0 48 47.9" id="shape-icon-money"><title>icon-money</title>  <use xlink:href="#icon-money-icon_x5F_invest" width="48" height="47.9" x="-24" y="-24" transform="matrix(1 0 0 -1 24 23.9511)" overflow="visible"/> </symbol><symbol viewBox="0 0 11.4 18" id="shape-icon-next"><title>icon-next</title>  <use xlink:href="#icon-next-icon_x5F_right" width="6.8" height="10.8" x="-3.4" y="-5.4" transform="matrix(1.6741 0 0 -1.6741 5.6951 9)" overflow="visible"/> </symbol><symbol viewBox="0 0 47 47" id="shape-icon-palace"><title>icon-palace</title>  <use xlink:href="#icon-palace-icon_x5F_bank" width="47" height="47" x="-23.5" y="-23.5" transform="matrix(1 0 0 -1 23.5005 23.4892)" overflow="visible"/> </symbol><symbol viewBox="0 0 7.2 12" id="shape-icon-phone"><title>icon-phone</title>  <g> <g> <g> <path fill="#FF5900" d="M7.1,10.7L6.3,8.6C6.2,8.2,5.7,8,5.3,8.2l-1,0.4c0,0-0.1-0.1-0.1-0.1C3.8,8,3.3,7.4,3,6.4
				C2.6,5.5,2.6,4.7,2.5,4.2c0-0.1,0-0.1,0-0.2l0.7-0.3l0.3-0.1C4,3.4,4.2,3,4,2.6L3.2,0.5C3.1,0.1,2.6-0.1,2.2,0.1L1.6,0.3l0,0
				C1.4,0.4,1.2,0.6,1,0.7C0.8,0.9,0.7,1.1,0.6,1.3c-0.9,1.5-0.8,3.2,0.3,6c1.5,3.9,3.7,4.6,3.8,4.6C4.9,11.9,5.1,12,5.3,12
				c0.2,0,0.5,0,0.7-0.1l0,0l0.6-0.2C7.1,11.6,7.3,11.1,7.1,10.7z"/> </g> </g> </g> </symbol><symbol viewBox="0 0 28 28" id="shape-icon-place"><title>icon-place</title>  <use xlink:href="#icon-place-icon_x5F_location" width="28" height="28" x="-14" y="-14" transform="matrix(1 0 0 -1 14 14)" overflow="visible"/> </symbol><symbol viewBox="0 0 11.4 18" id="shape-icon-prev"><title>icon-prev</title>  <use xlink:href="#icon-prev-icon_x5F_left" width="6.8" height="10.8" x="-3.4" y="-5.4" transform="matrix(1.6741 0 0 -1.6741 5.6951 9)" overflow="visible"/> </symbol><symbol viewBox="0 0 15.4 18" id="shape-icon-private"><title>icon-private</title>  <use xlink:href="#icon-private-icon_x5F_private" width="12" height="14" x="-6" y="-7" transform="matrix(1.2857 0 0 -1.2857 7.7143 9)" overflow="visible"/> </symbol><symbol viewBox="0 0 28 28" id="shape-icon-rise"><title>icon-rise</title>  <use xlink:href="#icon-rise-icon_x5F_graph" width="28" height="28" x="-14.4" y="-14.5" transform="matrix(1 0 0 -1 14.439 13.5499)" overflow="visible"/> </symbol><symbol viewBox="0 0 24 15.2" id="shape-icon-up"><title>icon-up</title>  <use xlink:href="#icon-up-icon_x5F_up" width="10.8" height="6.8" x="-5.4" y="-3.4" transform="matrix(2.2322 0 0 -2.2322 12 7.5918)" overflow="visible"/> </symbol></svg>